<?xml version="1.0" encoding="UTF-8" standalone="no"?>
<svg
   xmlns:dc="http://purl.org/dc/elements/1.1/"
   xmlns:cc="http://creativecommons.org/ns#"
   xmlns:rdf="http://www.w3.org/1999/02/22-rdf-syntax-ns#"
   xmlns:svg="http://www.w3.org/2000/svg"
   xmlns="http://www.w3.org/2000/svg"
   xmlns:sodipodi="http://sodipodi.sourceforge.net/DTD/sodipodi-0.dtd"
   xmlns:inkscape="http://www.inkscape.org/namespaces/inkscape"
   width="192"
   height="107"
   viewBox="0 0 50.8 28.310417"
   version="1.1"
   id="svg8"
   inkscape:version="1.0 (4035a4fb49, 2020-05-01)"
   sodipodi:docname="signature.svg">
  <defs
     id="defs2" />
  <sodipodi:namedview
     id="base"
     pagecolor="#ffffff"
     bordercolor="#666666"
     borderopacity="1.0"
     inkscape:pageopacity="0.0"
     inkscape:pageshadow="2"
     inkscape:zoom="7.0934579"
     inkscape:cx="91.629776"
     inkscape:cy="53.5"
     inkscape:document-units="mm"
     inkscape:current-layer="layer1"
     inkscape:document-rotation="0"
     showgrid="false"
     inkscape:window-width="1920"
     inkscape:window-height="1017"
     inkscape:window-x="-8"
     inkscape:window-y="-8"
     inkscape:window-maximized="1"
     units="px"
     width="192px" />
  <metadata
     id="metadata5">
    <rdf:RDF>
      <cc:Work
         rdf:about="">
        <dc:format>image/svg+xml</dc:format>
        <dc:type
           rdf:resource="http://purl.org/dc/dcmitype/StillImage" />
        <dc:title />
      </cc:Work>
    </rdf:RDF>
  </metadata>
  <g
     inkscape:label="Layer 1"
     inkscape:groupmode="layer"
     id="layer1">
    <g
       id="g63"
       transform="matrix(0.16892164,0,0,0.16892164,-31.327968,-17.869014)"
       style="stroke-width:1.00087088;stroke-miterlimit:4;stroke-dasharray:none;fill:#2c6fc6;fill-opacity:1">
      <circle
         r="0.035322174"
         cy="174.52701"
         cx="212.47928"
         style="stroke:#000000;stroke-width:1.00087088;stroke-miterlimit:4;stroke-dasharray:none;fill:#2c6fc6;fill-opacity:1"
         id="path22" />
      <path
         d="m 227.02219,170.76152 c 0.18831,2.26841 1.03688,4.41169 1.72386,6.55943 1.95826,6.12215 0.22691,0.96296 2.78368,8.37069 2.92811,8.81367 6.10518,17.54173 8.92047,26.39336 0.19213,0.60408 3.86608,12.56889 4.12885,13.42429 2.47353,7.85002 4.88034,15.73106 6.76976,23.74571 0.74839,3.17454 1.27838,5.85907 1.93011,9.03063 0.62545,3.24367 1.20238,6.49574 1.74752,9.75369 0,0 3.20251,-1.70447 3.20251,-1.70447 v 0 c -0.62516,-3.22588 -1.27514,-6.44661 -1.93926,-9.66473 -1.08144,-4.78594 -2.1589,-9.57643 -3.46505,-14.30764 -1.69896,-6.1541 -3.70069,-12.2221 -5.55002,-18.33107 -2.19049,-6.89983 -4.34503,-13.81233 -6.59627,-20.69268 -2.09675,-6.40814 -4.28247,-12.78779 -6.25936,-19.23492 -1.45499,-4.82027 -1.31371,-4.24002 -2.49871,-8.51793 -0.59815,-2.15935 -1.3407,-4.35567 -1.37705,-6.61842 0,0 -3.52104,1.79406 -3.52104,1.79406 z"
         id="path24"
         style="fill-opacity:1;fill-rule:nonzero;stroke:none;stroke-width:1.00087088;stroke-miterlimit:4;stroke-dasharray:none;fill:#2c6fc6" />
      <path
         d="m 266.47505,244.06242 c 0.5066,-1.72954 1.02949,-3.42338 1.41097,-5.19064 0.33742,-1.56318 1.53564,-8.31195 1.76868,-9.6523 2.29164,-13.18077 0.0774,-0.8955 2.57215,-14.54939 1.78724,-10.3384 3.1414,-20.74645 5.12911,-31.05074 0.98935,-5.12885 1.48121,-7.10801 2.61109,-12.06367 1.28294,-5.65419 2.93987,-11.21184 4.37663,-16.82647 0.1909,-0.71019 0.34563,-1.41933 0.40894,-2.15085 0,0 -3.52578,1.75892 -3.52578,1.75892 v 0 c -0.0579,0.69201 -0.18233,1.37151 -0.33309,2.04995 -1.20157,5.53944 -2.68845,11.0137 -3.82656,16.56793 -0.39156,1.85656 -0.80378,3.70888 -1.17464,5.56968 -0.88024,4.41628 -1.75205,9.35405 -2.49161,13.77124 -3.27163,19.53992 0.6989,-3.77385 -2.45687,15.67306 -0.43323,2.66967 -0.91879,5.33059 -1.37819,7.99589 -2.58987,13.76589 -0.20751,1.28842 -2.86472,14.69168 -1.00317,5.06006 -1.85386,10.18624 -3.68588,15.03373 0,0 3.45977,-1.62802 3.45977,-1.62802 z"
         id="path26"
         style="fill-opacity:1;fill-rule:nonzero;stroke:none;stroke-width:1.00087088;stroke-miterlimit:4;stroke-dasharray:none;fill:#2c6fc6" />
      <path
         d="m 300.3582,253.79198 c -0.26575,-5.88279 -0.15666,-2.68369 -0.28663,-9.56746 -0.0566,-2.99785 -0.15176,-5.99522 -0.16988,-8.99356 -0.064,-10.59093 0.26971,-21.17361 0.60766,-31.75713 0.65096,-14.25862 1.46513,-28.51127 2.47169,-42.74942 0,0 -3.10756,1.56407 -3.10756,1.56407 v 0 c -0.39291,14.11545 -1.11704,28.21758 -1.62634,42.32891 -0.11417,3.56352 -0.24532,7.12652 -0.34253,10.69054 -0.24093,8.83506 -0.24328,12.36758 -0.45731,21.17204 -0.0747,3.07239 -0.19227,6.14367 -0.26209,9.21617 -0.033,1.45327 -0.0996,7.86747 -0.12057,9.79205 0,0 3.29356,-1.69621 3.29356,-1.69621 z"
         id="path28"
         style="fill-opacity:1;fill-rule:nonzero;stroke:none;stroke-width:1.00087088;stroke-miterlimit:4;stroke-dasharray:none;fill:#2c6fc6" />
      <path
         d="m 305.05384,147.30119 c 1.69915,-1.50296 3.50406,-2.88036 5.40766,-4.11536 0.88318,-0.57298 1.75588,-1.17131 2.69605,-1.64504 0.0828,-0.0417 -0.0738,0.29127 0.018,0.27754 1.34154,-0.20102 2.64948,-0.58382 3.97425,-0.87573 3.30968,0.0576 5.55332,-0.1939 8.73022,1.03716 4.65249,1.80287 8.28805,5.66621 10.14735,10.256 0.64096,1.58221 0.87025,3.30145 1.30538,4.95218 -0.27041,5.35601 0.0472,6.62892 -1.80462,11.82171 -2.16119,6.06029 -6.11761,11.66871 -10.24067,16.53839 -1.27161,1.50189 -2.66356,2.8976 -3.99537,4.3464 -1.19724,1.1746 -2.39448,2.3492 -3.59172,3.5238 0,0 3.07039,-1.27056 3.07039,-1.27056 v 0 c 1.15721,-1.16384 2.31444,-2.32768 3.47168,-3.49152 1.30349,-1.44549 2.66419,-2.84138 3.91048,-4.33649 4.11306,-4.93425 8.05662,-10.5664 10.21988,-16.67219 1.84515,-5.20788 1.55141,-6.64447 1.85806,-12.03176 -0.44423,-1.67807 -0.67982,-3.42578 -1.33265,-5.03421 -1.87568,-4.62119 -5.5671,-8.64397 -10.22977,-10.53394 -3.08692,-1.25125 -5.53583,-1.06612 -8.7684,-1.18957 -1.31876,0.25119 -2.70735,0.26118 -3.95626,0.75357 -2.14313,0.84495 -4.10099,2.10165 -6.11629,3.21762 -2.99805,1.66013 -5.74223,3.74405 -8.37634,5.92241 0,0 3.60278,-1.45041 3.60278,-1.45041 z"
         id="path30"
         style="fill-opacity:1;fill-rule:nonzero;stroke:none;stroke-width:1.00087088;stroke-miterlimit:4;stroke-dasharray:none;fill:#2c6fc6" />
      <path
         d="m 355.18595,235.20564 c -0.0899,-0.66293 -0.2064,-1.32278 -0.26956,-1.98878 -0.47874,-5.04906 -0.57481,-7.98109 -0.7897,-13.3688 -0.42455,-10.64481 -0.65479,-21.29637 -0.9489,-31.94527 -0.67667,-17.40673 -2.37054,-34.74675 -4.2921,-52.05279 -0.23214,-2.29101 -0.53546,-4.57433 -0.77348,-6.86471 -0.0787,-0.75747 -0.3129,-2.7746 -0.19765,-3.66396 0.15031,-1.15982 0.53576,-1.62999 1.08879,-2.63502 1.60909,-1.96065 3.65927,-3.48723 5.77326,-4.86175 0.8903,-0.57886 1.77517,-1.17619 2.72712,-1.64685 0.10675,-0.0528 0.21727,0.17095 0.3308,0.13494 1.28183,-0.40652 2.51344,-0.95704 3.77016,-1.43556 4.92389,-1.50816 10.127,-2.21345 15.2341,-1.22748 1.1032,0.21298 2.24231,0.39594 3.25075,0.89139 1.09056,0.53579 1.9617,1.43426 2.94256,2.1514 1.91929,2.58908 3.10753,3.63189 3.84,6.89867 0.9606,4.28417 -0.0494,9.63643 -1.63848,13.64379 -0.60431,1.52394 -1.44468,2.94334 -2.16704,4.41502 -3.88173,6.15174 -9.04259,11.28488 -14.52507,16.00225 -1.509,1.29842 -4.00852,3.30304 -5.6405,4.62222 1.28567,-0.53219 -2.33613,1.3174 -1.72368,1.9219 0.76473,0.75479 3.08216,-0.57269 3.27689,-0.65165 0.6186,-0.25085 5.6255,-2.37884 6.10966,-2.58431 6.89202,-2.92352 13.88663,-5.71771 21.17815,-7.493 1.26084,-0.30699 2.54074,-0.52981 3.81111,-0.79472 2.6892,-0.21072 4.69008,-0.61496 7.35131,0.14185 1.99837,0.56831 4.94893,2.29816 6.34138,3.86054 2.2448,2.51874 2.72417,4.73987 3.87207,7.8334 0.52985,2.88651 1.30148,6.09914 1.1357,9.07553 -0.10028,1.8003 -0.44159,3.58549 -0.84519,5.34283 -0.82701,3.60085 -2.4121,7.96272 -3.9932,11.28623 -0.94297,1.98217 -2.08319,3.86434 -3.12478,5.79651 -1.41835,2.06567 -2.74203,4.19963 -4.25505,6.19702 -3.64763,4.81543 -8.15515,9.73893 -12.22203,14.16672 -6.3817,6.948 -12.949,13.71593 -19.53581,20.46814 0,0 2.68513,-1.11764 2.68513,-1.11764 v 0 c 6.473,-6.76605 12.97149,-13.51264 19.3263,-20.39035 3.95751,-4.28314 8.90683,-9.65596 12.48744,-14.32084 1.55151,-2.02133 2.90628,-4.18632 4.35943,-6.27948 1.05786,-1.95187 2.21832,-3.85153 3.17354,-5.85561 1.57454,-3.30331 3.19482,-7.81606 4.03855,-11.38888 0.42495,-1.79948 0.81516,-3.62361 0.92451,-5.46935 0.16499,-2.78483 -0.69091,-6.4693 -1.18785,-9.15661 -1.11625,-3.06122 -1.68405,-5.5289 -3.87546,-8.05203 -0.83412,-0.9604 -1.91129,-1.69701 -2.98955,-2.37194 -1.07971,-0.67585 -2.22456,-1.28814 -3.44432,-1.6553 -2.68094,-0.807 -4.72993,-0.40744 -7.44744,-0.21504 -1.28616,0.26747 -2.58236,0.49053 -3.85847,0.8024 -1.37906,0.33703 -2.74217,0.73774 -4.10268,1.14322 -5.80062,1.72876 -11.44966,3.88646 -17.01932,6.24884 -2.17874,0.91715 -3.80942,1.61206 -5.97935,2.49436 -0.66789,0.27157 -1.35998,0.48711 -2.00988,0.79932 -0.23244,0.11167 -0.36483,0.42169 -0.61926,0.46373 -0.13229,0.0219 0.0836,-0.25477 0.12547,-0.38216 0.45757,-0.40238 0.91514,-0.80476 1.37271,-1.20715 3.05067,-2.541 6.13317,-5.05233 9.0057,-7.79788 4.07302,-3.89301 7.84736,-8.08811 10.86953,-12.86482 0.72089,-1.49074 1.56173,-2.92923 2.16266,-4.47224 1.57792,-4.0517 2.58021,-9.57545 1.61964,-13.89283 -0.72617,-3.26383 -2.00575,-4.47611 -3.89488,-7.088 -0.99377,-0.76121 -1.86605,-1.71511 -2.98129,-2.28362 -1.01815,-0.519 -2.18152,-0.69854 -3.30269,-0.91971 -3.75378,-0.74049 -7.67173,-0.59656 -11.41421,0.12477 -1.33884,0.25805 -2.64379,0.66833 -3.9657,1.00249 -5.3757,1.98593 -3.73399,1.19996 -10.16974,4.72861 -2.44311,1.33953 -5.21869,3.21003 -7.22397,5.16353 -0.5125,0.49928 -0.93999,1.07899 -1.40999,1.61848 -0.55256,1.1163 -0.89916,1.54152 -0.99859,2.80638 -0.0672,0.85537 0.26487,2.90604 0.37351,3.61771 0.34173,2.23874 0.75684,4.46597 1.06016,6.71078 0.65855,4.4776 1.08722,7.25395 1.67055,11.89205 1.661,13.20642 2.83469,26.47962 3.28017,39.78547 0.28559,10.70459 0.53459,21.40462 0.62056,32.113 0.0222,2.75669 0.0254,5.5135 0.039,8.27024 0.009,1.83377 -0.014,3.66801 0.0286,5.5013 0.0161,0.69015 0.0983,1.37717 0.14743,2.06576 0,0 3.43252,-1.80666 3.43252,-1.80666 z"
         id="path50"
         style="fill-opacity:1;fill-rule:nonzero;stroke:none;stroke-width:1.00087088;stroke-miterlimit:4;stroke-dasharray:none;fill:#2c6fc6" />
      <circle
         r="0.035322174"
         cy="147.2655"
         cx="459.16907"
         style="stroke:#000000;stroke-width:1.00087088;stroke-miterlimit:4;stroke-dasharray:none;fill:#2c6fc6;fill-opacity:1"
         id="path52" />
    </g>
  </g>
</svg>
